G04 Layer_Physical_Order=2*
G04 Layer_Color=16711680*
%FSLAX44Y44*%
%MOMM*%
G71*
G01*
G75*
%ADD10C,1.0000*%
%ADD11C,0.2000*%
%ADD12C,6.3500*%
%ADD13C,1.6000*%
%ADD14C,1.5200*%
%ADD15C,7.8000*%
G36*
X574000Y63524D02*
X572861Y62962D01*
X571818Y63762D01*
X568534Y65122D01*
X565009Y65587D01*
X561485Y65122D01*
X558201Y63762D01*
X555381Y61598D01*
X553217Y58778D01*
X551857Y55494D01*
X551393Y51970D01*
X551857Y48446D01*
X553217Y45162D01*
X555381Y42342D01*
X558201Y40178D01*
X561485Y38818D01*
X565009Y38354D01*
X568534Y38818D01*
X571818Y40178D01*
X572861Y40978D01*
X574000Y40416D01*
Y21343D01*
X417000D01*
Y24783D01*
X417955Y25621D01*
X418007Y25614D01*
X420617Y25958D01*
X423050Y26965D01*
X425139Y28568D01*
X426742Y30657D01*
X427749Y33089D01*
X428093Y35700D01*
X427749Y38310D01*
X426742Y40743D01*
X425139Y42832D01*
X423050Y44435D01*
X420617Y45443D01*
X418007Y45786D01*
X417955Y45780D01*
X417000Y46617D01*
Y126940D01*
X574000D01*
Y63524D01*
D02*
G37*
G36*
X275000Y19060D02*
X224925D01*
X216560Y27424D01*
Y31454D01*
X217830Y31706D01*
X218265Y30657D01*
X219868Y28568D01*
X221957Y26965D01*
X224389Y25958D01*
X227000Y25614D01*
X229611Y25958D01*
X232043Y26965D01*
X234132Y28568D01*
X235735Y30657D01*
X236743Y33089D01*
X237086Y35700D01*
X236743Y38310D01*
X235735Y40743D01*
X234132Y42832D01*
X232043Y44435D01*
X229611Y45443D01*
X227000Y45786D01*
X224389Y45443D01*
X221957Y44435D01*
X219868Y42832D01*
X218265Y40743D01*
X217830Y39694D01*
X216560Y39946D01*
Y50813D01*
X216632Y50868D01*
X218235Y52957D01*
X219243Y55389D01*
X219586Y58000D01*
X219243Y60610D01*
X218235Y63043D01*
X216632Y65132D01*
X214543Y66735D01*
X212111Y67743D01*
X209500Y68086D01*
X206889Y67743D01*
X204457Y66735D01*
X202368Y65132D01*
X200765Y63043D01*
X199757Y60610D01*
X199414Y58000D01*
X199757Y55389D01*
X200765Y52957D01*
X202368Y50868D01*
X202440Y50813D01*
Y24500D01*
X202680Y22673D01*
X203386Y20970D01*
X203923Y20270D01*
X203296Y19000D01*
X86000D01*
Y139000D01*
X275000D01*
Y19060D01*
D02*
G37*
%LPC*%
G36*
X480009Y65587D02*
X476485Y65122D01*
X473201Y63762D01*
X470381Y61598D01*
X468217Y58778D01*
X466857Y55494D01*
X466393Y51970D01*
X466857Y48446D01*
X468217Y45162D01*
X470381Y42342D01*
X473201Y40178D01*
X476485Y38818D01*
X480009Y38354D01*
X483534Y38818D01*
X486818Y40178D01*
X489638Y42342D01*
X491802Y45162D01*
X493162Y48446D01*
X493626Y51970D01*
X493162Y55494D01*
X491802Y58778D01*
X489638Y61598D01*
X486818Y63762D01*
X483534Y65122D01*
X480009Y65587D01*
D02*
G37*
G36*
X549931Y82750D02*
X530088D01*
X530267Y81390D01*
X531275Y78957D01*
X532878Y76868D01*
X532949Y76813D01*
Y44568D01*
X531624Y42841D01*
X530657Y40506D01*
X530491Y39250D01*
X549528D01*
X549362Y40506D01*
X548395Y42841D01*
X547070Y44568D01*
Y76813D01*
X547142Y76868D01*
X548745Y78957D01*
X549752Y81390D01*
X549931Y82750D01*
D02*
G37*
G36*
X549528Y36750D02*
X541259D01*
Y28482D01*
X542516Y28647D01*
X544851Y29614D01*
X546856Y31153D01*
X548395Y33159D01*
X549362Y35494D01*
X549528Y36750D01*
D02*
G37*
G36*
X505009Y47683D02*
X502503Y47353D01*
X500168Y46386D01*
X498163Y44847D01*
X496624Y42841D01*
X495657Y40506D01*
X495327Y38000D01*
X495657Y35494D01*
X496624Y33159D01*
X498163Y31153D01*
X500168Y29614D01*
X502503Y28647D01*
X505009Y28317D01*
X507516Y28647D01*
X509851Y29614D01*
X511856Y31153D01*
X513395Y33159D01*
X514362Y35494D01*
X514692Y38000D01*
X514362Y40506D01*
X513395Y42841D01*
X511856Y44847D01*
X509851Y46386D01*
X507516Y47353D01*
X505009Y47683D01*
D02*
G37*
G36*
X538760Y36750D02*
X530491D01*
X530657Y35494D01*
X531624Y33159D01*
X533163Y31153D01*
X535168Y29614D01*
X537503Y28647D01*
X538760Y28482D01*
Y36750D01*
D02*
G37*
G36*
X445428Y56750D02*
X436757D01*
Y48078D01*
X438117Y48257D01*
X440550Y49265D01*
X442639Y50868D01*
X444242Y52957D01*
X445249Y55389D01*
X445428Y56750D01*
D02*
G37*
G36*
X534010Y112051D02*
X443991D01*
X442163Y111810D01*
X440460Y111105D01*
X438998Y109983D01*
X430514Y101499D01*
X429392Y100037D01*
X428687Y98334D01*
X428446Y96507D01*
Y65187D01*
X428375Y65132D01*
X426772Y63043D01*
X425764Y60610D01*
X425585Y59250D01*
X445428D01*
X445249Y60610D01*
X444242Y63043D01*
X442639Y65132D01*
X442567Y65187D01*
Y93582D01*
X446915Y97930D01*
X531085D01*
X532949Y96066D01*
Y91187D01*
X532878Y91132D01*
X531275Y89043D01*
X530267Y86610D01*
X530088Y85250D01*
X549931D01*
X549752Y86610D01*
X548745Y89043D01*
X547142Y91132D01*
X547070Y91187D01*
Y98990D01*
X546829Y100818D01*
X546124Y102521D01*
X545002Y103983D01*
X539002Y109983D01*
X537540Y111105D01*
X535837Y111810D01*
X534010Y112051D01*
D02*
G37*
G36*
X505009Y93683D02*
X502503Y93353D01*
X500168Y92386D01*
X498163Y90847D01*
X496624Y88841D01*
X495657Y86506D01*
X495327Y84000D01*
X495657Y81494D01*
X496624Y79159D01*
X498163Y77153D01*
X500168Y75615D01*
X502503Y74647D01*
X505009Y74317D01*
X507516Y74647D01*
X509851Y75615D01*
X511856Y77153D01*
X513395Y79159D01*
X514362Y81494D01*
X514692Y84000D01*
X514362Y86506D01*
X513395Y88841D01*
X511856Y90847D01*
X509851Y92386D01*
X507516Y93353D01*
X505009Y93683D01*
D02*
G37*
G36*
X434257Y56750D02*
X425585D01*
X425764Y55389D01*
X426772Y52957D01*
X428375Y50868D01*
X430464Y49265D01*
X432896Y48257D01*
X434257Y48078D01*
Y56750D01*
D02*
G37*
G36*
X114000Y68086D02*
X111390Y67743D01*
X108957Y66735D01*
X106868Y65132D01*
X105265Y63043D01*
X104257Y60610D01*
X103914Y58000D01*
X104257Y55389D01*
X105265Y52957D01*
X106868Y50868D01*
X108957Y49265D01*
X111390Y48257D01*
X114000Y47914D01*
X116610Y48257D01*
X119043Y49265D01*
X121132Y50868D01*
X122735Y52957D01*
X123743Y55389D01*
X124086Y58000D01*
X123743Y60610D01*
X122735Y63043D01*
X121132Y65132D01*
X119043Y66735D01*
X116610Y67743D01*
X114000Y68086D01*
D02*
G37*
G36*
X131500Y45786D02*
X128890Y45443D01*
X126457Y44435D01*
X124368Y42832D01*
X122765Y40743D01*
X121757Y38310D01*
X121414Y35700D01*
X121757Y33089D01*
X122765Y30657D01*
X124368Y28568D01*
X126457Y26965D01*
X128890Y25958D01*
X131500Y25614D01*
X134110Y25958D01*
X136543Y26965D01*
X138632Y28568D01*
X140235Y30657D01*
X141243Y33089D01*
X141586Y35700D01*
X141243Y38310D01*
X140235Y40743D01*
X138632Y42832D01*
X136543Y44435D01*
X134110Y45443D01*
X131500Y45786D01*
D02*
G37*
G36*
X147750Y56750D02*
X139078D01*
X139257Y55389D01*
X140265Y52957D01*
X141868Y50868D01*
X143957Y49265D01*
X146390Y48257D01*
X147750Y48078D01*
Y56750D01*
D02*
G37*
G36*
X229000Y96060D02*
X164000D01*
X162173Y95820D01*
X160470Y95114D01*
X159008Y93992D01*
X144008Y78993D01*
X142886Y77530D01*
X142180Y75827D01*
X141940Y74000D01*
Y65187D01*
X141868Y65132D01*
X140265Y63043D01*
X139257Y60610D01*
X139078Y59250D01*
X158922D01*
X158743Y60610D01*
X157735Y63043D01*
X156132Y65132D01*
X156060Y65187D01*
Y71076D01*
X166924Y81940D01*
X226075D01*
X237440Y70575D01*
Y65187D01*
X237368Y65132D01*
X235765Y63043D01*
X234757Y60610D01*
X234578Y59250D01*
X254422D01*
X254243Y60610D01*
X253235Y63043D01*
X251632Y65132D01*
X251560Y65187D01*
Y73500D01*
X251320Y75327D01*
X250614Y77030D01*
X249492Y78492D01*
X233992Y93992D01*
X232530Y95114D01*
X230827Y95820D01*
X229000Y96060D01*
D02*
G37*
G36*
X243250Y56750D02*
X234578D01*
X234757Y55389D01*
X235765Y52957D01*
X237368Y50868D01*
X239457Y49265D01*
X241889Y48257D01*
X243250Y48078D01*
Y56750D01*
D02*
G37*
G36*
X158922D02*
X150250D01*
Y48078D01*
X151610Y48257D01*
X154043Y49265D01*
X156132Y50868D01*
X157735Y52957D01*
X158743Y55389D01*
X158922Y56750D01*
D02*
G37*
G36*
X254422D02*
X245750D01*
Y48078D01*
X247111Y48257D01*
X249543Y49265D01*
X251632Y50868D01*
X253235Y52957D01*
X254243Y55389D01*
X254422Y56750D01*
D02*
G37*
%LPD*%
D10*
X400507Y58000D02*
Y73493D01*
X540009Y38000D02*
Y84000D01*
X164000Y89000D02*
X229000D01*
X244500Y73500D01*
X149000Y74000D02*
X164000Y89000D01*
X149000Y58000D02*
Y74000D01*
X244500Y58000D02*
Y73500D01*
X209500Y24500D02*
Y58000D01*
Y24500D02*
X222000Y12000D01*
X612000D01*
X625012Y25012D01*
Y71000D01*
X435507Y58000D02*
Y96507D01*
X443991Y104991D01*
X534010D01*
X540009Y98990D01*
Y84000D02*
Y98990D01*
X305005Y58000D02*
Y113005D01*
X315000Y58000D02*
X342000Y85000D01*
X389000D01*
X400507Y73493D01*
X305005Y58000D02*
X315000D01*
X716515Y71000D02*
Y110485D01*
X305005Y113005D02*
X326000Y134000D01*
X693000D01*
X716515Y110485D01*
D11*
X0Y152500D02*
X842500D01*
X842500Y0D02*
Y152500D01*
X0Y0D02*
Y152500D01*
Y0D02*
X842500D01*
D12*
X40000Y40000D02*
D03*
X805000D02*
D03*
Y110000D02*
D03*
X40000D02*
D03*
D13*
X114000Y58000D02*
D03*
X149000D02*
D03*
X305005D02*
D03*
X340005D02*
D03*
X400507D02*
D03*
X435507D02*
D03*
X209500D02*
D03*
X244500D02*
D03*
X540009Y84000D02*
D03*
D14*
X505009D02*
D03*
X540009Y38000D02*
D03*
X505009D02*
D03*
D15*
X625012Y71000D02*
D03*
X716515Y71000D02*
D03*
M02*
