G04 Layer_Color=65535*
%FSLAX44Y44*%
%MOMM*%
G71*
G01*
G75*
%ADD11C,0.2000*%
%ADD16C,0.2540*%
D11*
X470210Y108200D02*
G03*
X469510Y107500I0J-700D01*
G01*
X91500Y28700D02*
X171500D01*
X91500Y112800D02*
X171500D01*
Y28700D02*
Y112800D01*
X91500Y28700D02*
Y112800D01*
X282505Y28700D02*
X362505D01*
X282505Y112800D02*
X362505D01*
Y28700D02*
Y112800D01*
X282505Y28700D02*
Y112800D01*
X378007Y28700D02*
X458007D01*
X378007Y112800D02*
X458007D01*
Y28700D02*
Y112800D01*
X378007Y28700D02*
Y112800D01*
X187000Y28700D02*
X267000D01*
X187000Y112800D02*
X267000D01*
Y28700D02*
Y112800D01*
X187000Y28700D02*
Y112800D01*
X469510Y8700D02*
X575509D01*
Y108200D01*
X558960D02*
Y138800D01*
X486059D02*
X558960D01*
X486059Y108200D02*
Y138800D01*
X558960Y108200D02*
X575509D01*
X469510Y8700D02*
Y107500D01*
X470210Y108200D02*
X486059D01*
X583012Y29000D02*
Y113000D01*
X667012D01*
X583012Y29000D02*
X667012D01*
Y113000D01*
X674515Y29000D02*
Y113000D01*
X758515D01*
X674515Y29000D02*
X758515D01*
Y113000D01*
X93000Y13801D02*
Y23798D01*
X97998D01*
X99664Y22131D01*
Y18799D01*
X97998Y17133D01*
X93000D01*
X102997Y13801D02*
X106329D01*
X104663D01*
Y23798D01*
X102997Y22131D01*
X282502Y13801D02*
Y23798D01*
X287500D01*
X289167Y22131D01*
Y18799D01*
X287500Y17133D01*
X282502D01*
X299163Y13801D02*
X292499D01*
X299163Y20465D01*
Y22131D01*
X297497Y23798D01*
X294165D01*
X292499Y22131D01*
X379502Y13801D02*
Y23798D01*
X384500D01*
X386166Y22131D01*
Y18799D01*
X384500Y17133D01*
X379502D01*
X389499Y22131D02*
X391165Y23798D01*
X394497D01*
X396163Y22131D01*
Y20465D01*
X394497Y18799D01*
X392831D01*
X394497D01*
X396163Y17133D01*
Y15467D01*
X394497Y13801D01*
X391165D01*
X389499Y15467D01*
X187495Y13801D02*
Y23798D01*
X192494D01*
X194160Y22131D01*
Y18799D01*
X192494Y17133D01*
X187495D01*
X202490Y13801D02*
Y23798D01*
X197492Y18799D01*
X204156D01*
X480999Y113970D02*
X471003D01*
Y118968D01*
X472669Y120634D01*
X476001D01*
X477667Y118968D01*
Y113970D01*
X471003Y130631D02*
Y123967D01*
X476001D01*
X474335Y127299D01*
Y128965D01*
X476001Y130631D01*
X479333D01*
X480999Y128965D01*
Y125633D01*
X479333Y123967D01*
X590674Y22331D02*
X589008Y23997D01*
X585675D01*
X584009Y22331D01*
Y20665D01*
X585675Y18998D01*
X589008D01*
X590674Y17332D01*
Y15666D01*
X589008Y14000D01*
X585675D01*
X584009Y15666D01*
X594006Y14000D02*
X597338D01*
X595672D01*
Y23997D01*
X594006Y22331D01*
X681171Y22331D02*
X679505Y23997D01*
X676173D01*
X674507Y22331D01*
Y20665D01*
X676173Y18998D01*
X679505D01*
X681171Y17332D01*
Y15666D01*
X679505Y14000D01*
X676173D01*
X674507Y15666D01*
X691168Y14000D02*
X684504D01*
X691168Y20665D01*
Y22331D01*
X689502Y23997D01*
X686170D01*
X684504Y22331D01*
X0Y152500D02*
X842500D01*
X842500Y0D02*
Y152500D01*
X0Y0D02*
Y152500D01*
Y0D02*
X842500D01*
D16*
X126000Y117801D02*
Y127957D01*
X131078Y133036D01*
X136157Y127957D01*
Y117801D01*
Y125418D01*
X126000D01*
X317502Y133036D02*
Y117801D01*
X325120D01*
X327659Y120340D01*
Y122879D01*
X325120Y125418D01*
X317502D01*
X325120D01*
X327659Y127957D01*
Y130497D01*
X325120Y133036D01*
X317502D01*
X424659Y130497D02*
X422119Y133036D01*
X417041D01*
X414502Y130497D01*
Y120340D01*
X417041Y117801D01*
X422119D01*
X424659Y120340D01*
M02*
