M48
;Layer_Color=9474304
;FILE_FORMAT=4:4
METRIC,LZ
;TYPE=PLATED
T1F00S00C1.0200
T2F00S00C1.0500
T3F00S00C1.6000
T4F00S00C2.3000
T5F00S00C2.8450
%
T01
X00505009Y00038
Y00084
X00540009
Y00038
T02
X00114Y00058
X00149
X002095
X002445
X00305005
X00340005
X00400507
X00435507
T03
X001315Y000357
X00227
X00322505
X00418007
T04
X00480009Y0005197
X00565009
T05
X0004Y0004
Y0011
X00805
Y0004
M30
