G04 Layer_Physical_Order=1*
G04 Layer_Color=255*
%FSLAX44Y44*%
%MOMM*%
G71*
G01*
G75*
%ADD10C,1.0000*%
%ADD11C,0.2000*%
%ADD12C,6.3500*%
%ADD13C,1.6000*%
%ADD14C,1.5200*%
%ADD15C,7.8000*%
D10*
X716515Y23515D02*
Y71000D01*
X505009Y38000D02*
Y84000D01*
X114000Y58000D02*
Y117000D01*
X131000Y134000D01*
X614000D01*
X625012Y122988D01*
Y71000D02*
Y122988D01*
X435507Y58000D02*
Y75493D01*
X340005Y77004D02*
X348000Y85000D01*
X426000D01*
X435507Y75493D01*
X705000Y12000D02*
X716515Y23515D01*
X340005Y58000D02*
Y77004D01*
Y55005D02*
Y58000D01*
X530000Y12000D02*
X705000D01*
X504505Y37495D02*
X530000Y12000D01*
D11*
X0Y152500D02*
X842500D01*
X842500Y0D02*
Y152500D01*
X0Y0D02*
Y152500D01*
Y0D02*
X842500D01*
D12*
X40000Y40000D02*
D03*
X805000D02*
D03*
Y110000D02*
D03*
X40000D02*
D03*
D13*
X114000Y58000D02*
D03*
X149000D02*
D03*
X305005D02*
D03*
X340005D02*
D03*
X400507D02*
D03*
X435507D02*
D03*
X209500D02*
D03*
X244500D02*
D03*
X540009Y84000D02*
D03*
D14*
X505009D02*
D03*
X540009Y38000D02*
D03*
X505009D02*
D03*
D15*
X625012Y71000D02*
D03*
X716515Y71000D02*
D03*
M02*
